<svg width="57" height="82" viewBox="0 0 57 82" fill="none" xmlns="http://www.w3.org/2000/svg">
<path d="M54.9808 32.7503L53.4841 32.8502L53.4841 32.8507L54.9808 32.7503ZM49.754 39.0447L49.6182 37.5509L46.2592 37.8562L48.7356 40.1461L49.754 39.0447ZM45.1074 46.1898L45.2934 44.7013L43.1544 44.4341L43.6471 46.5326L45.1074 46.1898ZM44.1393 52.3141L44.898 53.608L44.898 53.608L44.1393 52.3141ZM37.7504 54.1854L39.0123 54.9964L39.0125 54.9961L37.7504 54.1854ZM36.0082 67.2846L35.9987 68.7846L37.4793 68.7939L37.5079 67.3136L36.0082 67.2846ZM30.5874 67.2506H29.0874V68.7412L30.578 68.7506L30.5874 67.2506ZM30.5874 11.9361H32.0874V11.7929L32.0603 11.6523L30.5874 11.9361ZM43.5574 15.2296L42.103 15.5968L42.3544 16.5926L43.3738 16.7183L43.5574 15.2296ZM13.7471 37.6037C13.1616 38.1898 13.1621 39.1396 13.7482 39.7251C14.3343 40.3105 15.2841 40.31 15.8696 39.7239L13.7471 37.6037ZM18.9599 34.5078L20.1872 33.6455L19.1606 32.1844L17.8987 33.4477L18.9599 34.5078ZM23.6417 41.1712H25.1417V40.697L24.869 40.3089L23.6417 41.1712ZM23.6417 67.203V68.703H25.1417V67.203H23.6417ZM17.3129 67.203L16.848 68.6291L17.0746 68.703H17.3129V67.203ZM8.12514 48.5714L7.02949 49.5959L7.05189 49.6199L7.07532 49.6428L8.12514 48.5714ZM8.12514 15.4287L6.97884 14.4612L6.95067 14.4946L6.92448 14.5296L8.12514 15.4287ZM21.875 7.00262L22.0242 8.49518L23.375 8.36012V7.00262H21.875ZM21.875 4L22.9356 2.93927L20.375 0.379023V4H21.875ZM25.4055 7.52999L26.4661 8.59072L27.5269 7.52999L26.4661 6.46926L25.4055 7.52999ZM20.8995 9.91419C20.3137 10.4999 20.3136 11.4497 20.8993 12.0355C21.4851 12.6213 22.4348 12.6214 23.0207 12.0357L20.8995 9.91419ZM17.483 70.0556C16.6546 70.0556 15.983 70.7271 15.983 71.5556C15.983 72.384 16.6546 73.0556 17.483 73.0556V70.0556ZM36.6173 73.0556C37.4457 73.0556 38.1173 72.384 38.1173 71.5556C38.1173 70.7271 37.4457 70.0556 36.6173 70.0556V73.0556ZM33.27 77.2778C34.0984 77.2778 34.77 76.6062 34.77 75.7778C34.77 74.9494 34.0984 74.2778 33.27 74.2778V77.2778ZM25.5319 78.5C24.7034 78.5 24.0319 79.1716 24.0319 80C24.0319 80.8284 24.7034 81.5 25.5319 81.5V78.5ZM29.03 81.5C29.8584 81.5 30.53 80.8284 30.53 80C30.53 79.1716 29.8584 78.5 29.03 78.5V81.5ZM21.61 74.2778C20.7816 74.2778 20.11 74.9494 20.11 75.7778C20.11 76.6062 20.7816 77.2778 21.61 77.2778V74.2778ZM48.2057 26.1156C48.0077 27.6025 48.0071 27.6024 48.0065 27.6023C48.0064 27.6023 48.0058 27.6022 48.0055 27.6022C48.0048 27.6021 48.0042 27.602 48.0037 27.602C48.0028 27.6018 48.0022 27.6017 48.002 27.6017C48.0015 27.6016 48.0026 27.6018 48.005 27.6021C48.0099 27.6029 48.0204 27.6045 48.0362 27.607C48.0679 27.6122 48.1205 27.6213 48.1911 27.6352C48.3327 27.6631 48.5446 27.71 48.8039 27.7829C49.3276 27.9301 50.0179 28.1761 50.707 28.5679C52.0644 29.3397 53.3346 30.6116 53.4841 32.8502L56.4774 32.6503C56.2407 29.1049 54.1234 27.0594 52.1898 25.96C51.2334 25.4161 50.3024 25.0879 49.616 24.8949C49.2704 24.7977 48.9801 24.733 48.7708 24.6917C48.666 24.6711 48.581 24.6562 48.5188 24.6461C48.4878 24.641 48.4624 24.6372 48.4431 24.6343C48.4334 24.6329 48.4253 24.6317 48.4187 24.6308C48.4154 24.6303 48.4125 24.6299 48.41 24.6296C48.4087 24.6294 48.4076 24.6293 48.4065 24.6291C48.406 24.629 48.4053 24.6289 48.405 24.6289C48.4043 24.6288 48.4037 24.6287 48.2057 26.1156ZM53.4841 32.8507C53.5641 34.0429 53.3322 34.8692 53.0122 35.4532C52.6879 36.0453 52.224 36.4768 51.7154 36.7961C51.2009 37.119 50.6617 37.3129 50.2401 37.4249C50.0325 37.48 49.8622 37.513 49.7499 37.5316C49.6939 37.5408 49.6531 37.5464 49.6301 37.5493C49.6187 37.5507 49.6117 37.5515 49.6096 37.5517C49.6085 37.5518 49.6087 37.5518 49.6101 37.5517C49.6108 37.5516 49.6118 37.5515 49.6132 37.5514C49.6139 37.5513 49.6146 37.5512 49.6155 37.5511C49.6159 37.5511 49.6166 37.551 49.6168 37.551C49.6175 37.551 49.6182 37.5509 49.754 39.0447C49.8898 40.5386 49.8906 40.5385 49.8913 40.5384C49.8916 40.5384 49.8925 40.5383 49.893 40.5383C49.8942 40.5382 49.8955 40.538 49.8968 40.5379C49.8996 40.5377 49.9026 40.5374 49.906 40.537C49.9128 40.5363 49.9211 40.5355 49.9306 40.5345C49.9497 40.5324 49.9742 40.5296 50.0038 40.5259C50.0628 40.5185 50.1423 40.5074 50.2391 40.4914C50.4323 40.4595 50.6976 40.4074 51.0104 40.3243C51.6294 40.1599 52.4696 39.8647 53.3103 39.337C54.1569 38.8056 55.024 38.0251 55.6433 36.8947C56.267 35.7562 56.5914 34.3497 56.4774 32.6499L53.4841 32.8507ZM48.7356 40.1461C49.5613 40.9095 49.9755 42.3214 49.6407 43.3077C49.4948 43.7375 49.1965 44.1332 48.6045 44.4119C47.9773 44.7072 46.9356 44.9065 45.2934 44.7013L44.9214 47.6782C46.9211 47.9281 48.5809 47.7389 49.8823 47.1262C51.219 46.4969 52.0766 45.465 52.4815 44.2719C53.2484 42.0123 52.344 39.3966 50.7723 37.9434L48.7356 40.1461ZM45.1074 46.1898C43.6471 46.5326 43.647 46.5323 43.647 46.532C43.6469 46.5319 43.6469 46.5317 43.6468 46.5315C43.6468 46.5312 43.6467 46.531 43.6467 46.5308C43.6466 46.5305 43.6466 46.5305 43.6467 46.5308C43.6468 46.5313 43.6472 46.5329 43.6478 46.5357C43.649 46.5412 43.6513 46.5511 43.6543 46.5651C43.6605 46.5932 43.6699 46.6377 43.6817 46.6966C43.7053 46.8145 43.738 46.9889 43.7715 47.2035C43.8391 47.6374 43.9069 48.2139 43.9166 48.8112C43.9265 49.4215 43.874 49.9768 43.7461 50.4025C43.618 50.8293 43.4641 50.9712 43.3805 51.0202L44.898 53.608C45.8719 53.0369 46.3678 52.1032 46.6194 51.2654C46.8713 50.4265 46.9286 49.5282 46.9162 48.7625C46.9036 47.9838 46.8168 47.2618 46.7356 46.7411C46.6946 46.4784 46.6542 46.2615 46.6233 46.1076C46.6079 46.0304 46.5948 45.9688 46.5852 45.9247C46.5804 45.9027 46.5764 45.885 46.5734 45.8719C46.572 45.8654 46.5707 45.86 46.5698 45.8559C46.5693 45.8538 46.5689 45.852 46.5685 45.8505C46.5683 45.8497 46.5682 45.8491 46.568 45.8485C46.568 45.8482 46.5679 45.8478 46.5678 45.8476C46.5678 45.8473 46.5677 45.8469 45.1074 46.1898ZM43.3805 51.0201C43.237 51.1043 42.9779 51.1844 42.4834 51.2268C41.9154 51.2756 41.5196 51.2567 40.7551 51.2963C39.4972 51.3613 37.6326 51.5933 36.4884 53.3747L39.0125 54.9961C39.3008 54.5472 39.7647 54.3514 40.91 54.2923C41.3471 54.2697 42.1717 54.2646 42.7401 54.2158C43.3821 54.1607 44.1755 54.0317 44.898 53.608L43.3805 51.0201ZM36.4885 53.3745C35.3478 55.1494 34.9039 57.0153 34.7131 59.2119C34.528 61.3416 34.5714 63.9896 34.5084 67.2557L37.5079 67.3136C37.5742 63.8753 37.5283 61.4682 37.7018 59.4716C37.8695 57.5419 38.2321 56.2104 39.0123 54.9964L36.4885 53.3745ZM36.0176 65.7847L30.5968 65.7506L30.578 68.7506L35.9987 68.7846L36.0176 65.7847ZM32.0874 67.2506V11.9361H29.0874V67.2506H32.0874ZM30.5874 11.9361C32.0603 11.6523 32.0605 11.6532 32.0607 11.6541C32.0607 11.6544 32.0609 11.6553 32.061 11.6558C32.0612 11.657 32.0614 11.658 32.0616 11.659C32.062 11.6611 32.0623 11.6629 32.0626 11.6644C32.0631 11.6675 32.0635 11.6697 32.0637 11.671C32.0642 11.6735 32.064 11.6725 32.0634 11.6683C32.0621 11.6597 32.0592 11.6387 32.0563 11.6073C32.0502 11.5434 32.0446 11.4439 32.0497 11.3244C32.0603 11.0723 32.1149 10.8108 32.2366 10.5986C32.3384 10.4212 32.5251 10.2055 32.9679 10.0537C33.4485 9.88903 34.288 9.7834 35.686 10.0137L36.1737 7.05366C34.4743 6.77365 33.0973 6.83814 31.9954 7.21571C30.8557 7.60623 30.0939 8.30489 29.6345 9.10563C29.195 9.87171 29.0754 10.6522 29.0523 11.1975C29.0405 11.4767 29.0531 11.7147 29.0695 11.8888C29.0777 11.9763 29.0871 12.0493 29.0953 12.1051C29.0994 12.133 29.1033 12.1567 29.1065 12.1759C29.1082 12.1856 29.1097 12.1941 29.111 12.2014C29.1117 12.2051 29.1123 12.2085 29.1129 12.2116C29.1132 12.2131 29.1135 12.2146 29.1137 12.216C29.1139 12.2167 29.1141 12.2177 29.1141 12.218C29.1143 12.219 29.1145 12.22 30.5874 11.9361ZM35.686 10.0137C38.3138 10.4467 39.9016 11.8467 40.8566 13.1507C41.3397 13.8104 41.6585 14.4447 41.8546 14.9098C41.9522 15.1412 42.018 15.3273 42.0577 15.449C42.0775 15.5097 42.0907 15.554 42.098 15.5796C42.1017 15.5923 42.1039 15.6003 42.1047 15.6033C42.1051 15.6048 42.1051 15.605 42.1048 15.6039C42.1047 15.6034 42.1045 15.6025 42.1042 15.6013C42.104 15.6007 42.1038 15.6001 42.1037 15.5993C42.1036 15.5989 42.1034 15.5983 42.1033 15.5981C42.1032 15.5974 42.103 15.5968 43.5574 15.2296C45.0118 14.8625 45.0116 14.8618 45.0114 14.861C45.0113 14.8608 45.0111 14.86 45.011 14.8594C45.0107 14.8583 45.0104 14.8571 45.0101 14.8558C45.0094 14.8533 45.0087 14.8503 45.0078 14.8471C45.0061 14.8405 45.004 14.8326 45.0015 14.8233C44.9965 14.8048 44.9899 14.7808 44.9815 14.7517C44.9649 14.6936 44.9412 14.615 44.9098 14.5186C44.8469 14.3259 44.7524 14.0606 44.6189 13.7441C44.3528 13.1132 43.9262 12.2648 43.2769 11.3782C41.9668 9.58934 39.7409 7.64141 36.1737 7.05366L35.686 10.0137ZM43.5574 15.2296C43.3738 16.7183 43.3731 16.7183 43.3725 16.7182C43.3724 16.7182 43.3718 16.7181 43.3716 16.7181C43.371 16.718 43.3706 16.718 43.3703 16.7179C43.3699 16.7179 43.37 16.7179 43.3708 16.718C43.3724 16.7182 43.3765 16.7187 43.383 16.7196C43.3961 16.7214 43.4188 16.7247 43.4505 16.7296C43.5138 16.7394 43.6125 16.7558 43.7403 16.7804C43.9966 16.8297 44.366 16.9111 44.7998 17.037C45.6804 17.2926 46.7635 17.7133 47.7066 18.3727C48.6401 19.0255 49.3788 19.8691 49.7178 20.9788C50.0549 22.0825 50.0591 23.654 49.1395 25.8862L51.9134 27.0289C53.0262 24.3276 53.1754 22.0289 52.5869 20.1024C52.0002 18.1817 50.7426 16.8351 49.4258 15.9142C48.1185 15.0001 46.6972 14.4639 45.636 14.1559C45.0989 14 44.638 13.898 44.3068 13.8344C44.1408 13.8025 44.0064 13.78 43.9102 13.765C43.862 13.7576 43.8233 13.752 43.7948 13.748C43.7806 13.7461 43.769 13.7445 43.7599 13.7433C43.7554 13.7427 43.7516 13.7422 43.7485 13.7418C43.7469 13.7416 43.7455 13.7415 43.7442 13.7413C43.7436 13.7412 43.7428 13.7411 43.7425 13.7411C43.7417 13.741 43.741 13.7409 43.5574 15.2296ZM15.8696 39.7239L20.0211 35.5679L17.8987 33.4477L13.7471 37.6037L15.8696 39.7239ZM17.7325 35.3701L22.4143 42.0336L24.869 40.3089L20.1872 33.6455L17.7325 35.3701ZM22.1417 41.1712V67.203H25.1417V41.1712H22.1417ZM23.6417 65.703H17.3129V68.703H23.6417V65.703ZM17.3129 67.203C17.7777 65.7768 17.7786 65.7771 17.7795 65.7774C17.7798 65.7775 17.7807 65.7778 17.7813 65.778C17.7824 65.7784 17.7835 65.7787 17.7846 65.7791C17.7867 65.7798 17.7886 65.7804 17.7904 65.781C17.7938 65.7822 17.7966 65.7831 17.7986 65.7839C17.8027 65.7853 17.8041 65.7858 17.8028 65.7854C17.8004 65.7844 17.788 65.7797 17.7674 65.7707C17.7258 65.7527 17.654 65.7188 17.5649 65.6662C17.3837 65.5592 17.1539 65.3887 16.9533 65.1377C16.6129 64.7118 16.1521 63.8073 16.7093 61.9268L13.833 61.0744C13.0291 63.7871 13.5891 65.7338 14.6099 67.0108C15.0899 67.6113 15.6257 68.0051 16.0399 68.2497C16.2486 68.3728 16.432 68.4614 16.5712 68.522C16.641 68.5523 16.7004 68.5759 16.7471 68.5935C16.7705 68.6022 16.7907 68.6095 16.8076 68.6155C16.8161 68.6184 16.8237 68.621 16.8304 68.6233C16.8338 68.6244 16.8369 68.6255 16.8399 68.6265C16.8413 68.6269 16.8428 68.6274 16.8441 68.6279C16.8448 68.6281 16.8458 68.6284 16.8461 68.6285C16.8471 68.6288 16.848 68.6291 17.3129 67.203ZM16.7093 61.9268C17.1984 60.2762 16.7621 58.4932 16.1095 56.9563C15.4391 55.3775 14.4283 53.7987 13.4166 52.4243C12.3982 51.0408 11.3412 49.8141 10.5426 48.9363C10.1422 48.4961 9.80399 48.1407 9.56435 47.8938C9.44447 47.7703 9.34908 47.6738 9.28271 47.6072C9.24952 47.5739 9.22357 47.5481 9.20543 47.5301C9.19636 47.5211 9.18924 47.5141 9.18414 47.5091C9.18159 47.5066 9.17954 47.5046 9.17801 47.503C9.17724 47.5023 9.17661 47.5017 9.1761 47.5012C9.17584 47.5009 9.17556 47.5006 9.17543 47.5005C9.17518 47.5003 9.17496 47.5001 8.12514 48.5714C7.07532 49.6428 7.07517 49.6427 7.07505 49.6426C7.07505 49.6426 7.07496 49.6425 7.07496 49.6425C7.07497 49.6425 7.07511 49.6426 7.07537 49.6429C7.0759 49.6434 7.07694 49.6444 7.07847 49.6459C7.08153 49.649 7.08659 49.654 7.09358 49.6609C7.10754 49.6747 7.1292 49.6963 7.15799 49.7251C7.21557 49.7829 7.30163 49.87 7.4117 49.9834C7.63197 50.2103 7.94774 50.542 8.32359 50.9551C9.07754 51.7839 10.0623 52.9282 11.0006 54.2028C11.9455 55.4865 12.8063 56.8529 13.3481 58.1289C13.9078 59.4469 14.0244 60.4283 13.833 61.0744L16.7093 61.9268ZM8.12514 48.5714C9.2208 47.547 9.22131 47.5475 9.22176 47.548C9.22185 47.5481 9.22225 47.5485 9.22242 47.5487C9.22275 47.5491 9.22288 47.5492 9.22281 47.5491C9.22265 47.549 9.22169 47.5479 9.21993 47.546C9.2164 47.5422 9.2097 47.5348 9.19998 47.5241C9.18053 47.5025 9.14901 47.4671 9.10666 47.4183C9.02194 47.3207 8.89402 47.1694 8.73282 46.9672C8.41017 46.5624 7.95563 45.9554 7.44766 45.1679C6.42967 43.5895 5.20997 41.3057 4.39853 38.4865C2.79324 32.9091 2.74283 25.1185 9.3258 16.3278L6.92448 14.5296C-0.274116 24.1424 -0.324522 32.9232 1.51557 39.3163C2.42684 42.4823 3.79118 45.0336 4.92655 46.7939C5.49528 47.6757 6.00975 48.364 6.38695 48.8372C6.57567 49.0739 6.73038 49.2573 6.8408 49.3845C6.89603 49.4482 6.94021 49.4978 6.97208 49.5332C6.98801 49.5508 7.00087 49.5649 7.01049 49.5754C7.0153 49.5806 7.0193 49.585 7.02247 49.5884C7.02406 49.5901 7.02544 49.5916 7.02661 49.5928C7.02719 49.5935 7.02791 49.5942 7.02821 49.5945C7.02887 49.5953 7.02949 49.5959 8.12514 48.5714ZM9.27144 16.3961C13.8078 11.0212 19.6402 8.73355 22.0242 8.49518L21.7258 5.51006C18.4951 5.83308 11.9704 8.54696 6.97884 14.4612L9.27144 16.3961ZM23.375 7.00262V4H20.375V7.00262H23.375ZM20.8144 5.06073L24.3449 8.59072L26.4661 6.46926L22.9356 2.93927L20.8144 5.06073ZM24.3449 6.46926L20.8995 9.91419L23.0207 12.0357L26.4661 8.59072L24.3449 6.46926ZM17.483 73.0556H36.6173V70.0556H17.483V73.0556ZM25.5319 81.5H29.03V78.5H25.5319V81.5ZM21.61 77.2778H33.27V74.2778H21.61V77.2778Z" fill="white"/>
</svg>
